<svg width="50" height="50" viewBox="0 0 50 50" fill="none" xmlns="http://www.w3.org/2000/svg">
<mask id="path-1-inside-1_7378_4991" fill="white">
<path d="M50 25C50 38.8071 38.8071 50 25 50C11.1929 50 0 38.8071 0 25C0 11.1929 11.1929 0 25 0C38.8071 0 50 11.1929 50 25ZM1.04854 25C1.04854 38.228 11.772 48.9515 25 48.9515C38.228 48.9515 48.9515 38.228 48.9515 25C48.9515 11.772 38.228 1.04854 25 1.04854C11.772 1.04854 1.04854 11.772 1.04854 25Z"/>
</mask>
<path d="M50 25C50 38.8071 38.8071 50 25 50C11.1929 50 0 38.8071 0 25C0 11.1929 11.1929 0 25 0C38.8071 0 50 11.1929 50 25ZM1.04854 25C1.04854 38.228 11.772 48.9515 25 48.9515C38.228 48.9515 48.9515 38.228 48.9515 25C48.9515 11.772 38.228 1.04854 25 1.04854C11.772 1.04854 1.04854 11.772 1.04854 25Z" stroke="#FFE5B0" stroke-width="4" mask="url(#path-1-inside-1_7378_4991)"/>
<mask id="path-2-inside-2_7378_4991" fill="white">
<path d="M25 0C29.9445 5.8963e-08 34.778 1.46622 38.8893 4.21326C43.0005 6.9603 46.2048 10.8648 48.097 15.4329C49.9892 20.0011 50.4843 25.0277 49.5196 29.8773C48.555 34.7268 46.174 39.1814 42.6777 42.6777L41.9362 41.9362C45.2859 38.5866 47.5671 34.3188 48.4912 29.6727C49.4154 25.0266 48.9411 20.2107 47.1283 15.8342C45.3154 11.4576 42.2455 7.71691 38.3067 5.08509C34.3679 2.45327 29.7372 1.04854 25 1.04854V0Z"/>
</mask>
<path d="M25 0C29.9445 5.8963e-08 34.778 1.46622 38.8893 4.21326C43.0005 6.9603 46.2048 10.8648 48.097 15.4329C49.9892 20.0011 50.4843 25.0277 49.5196 29.8773C48.555 34.7268 46.174 39.1814 42.6777 42.6777L41.9362 41.9362C45.2859 38.5866 47.5671 34.3188 48.4912 29.6727C49.4154 25.0266 48.9411 20.2107 47.1283 15.8342C45.3154 11.4576 42.2455 7.71691 38.3067 5.08509C34.3679 2.45327 29.7372 1.04854 25 1.04854V0Z" stroke="#FCB017" stroke-width="4" mask="url(#path-2-inside-2_7378_4991)"/>
<path d="M33.1292 35.6827C33.8086 36.3621 33.1292 37.4568 32.1755 37.2054C31.4053 37.0474 17.8004 33.9783 16.766 33.7583C15.7316 33.5384 15.7096 32.6186 16.2344 32.0819C16.5605 31.7558 22.9918 25.1962 22.9918 25.1962C22.9918 25.1962 32.4116 34.9303 33.1292 35.6827Z" fill="#FFF2D9"/>
<path d="M27.0843 11.4303C27.0843 11.4303 21.4937 12.0154 19.0768 12.2838C17.07 12.5173 16.2743 13.7895 15.9957 14.4069C15.6843 15.1139 15.5957 15.899 15.7418 16.6577C15.8879 17.4163 16.2618 18.1124 16.8135 18.6531L21.0598 23.1091C21.0598 23.1091 16.0136 28.3786 14.3142 30.0899C13.8523 30.5451 13.5118 31.1088 13.3238 31.7295C13.1358 32.3502 13.1064 33.0081 13.2382 33.6431C13.5618 35.1233 14.603 36.077 16.5826 36.5484C16.6887 36.5662 29.8817 39.5207 31.0961 39.8103C32.3105 40.0999 34.1806 40.1543 35.2438 38.8872C36.3071 37.6201 36.8973 35.6753 35.1835 33.7382C34.5891 33.1081 24.979 23.1091 24.979 23.1091L30.1501 17.8599C31.9691 16.0154 31.4452 14.0961 30.7097 13.0048C30.1305 12.1904 29.1267 11.2324 27.0843 11.4303ZM33.1793 35.6796C33.8587 36.359 33.1793 37.4537 32.2256 37.2023C31.4554 37.0443 17.8505 33.9752 16.8161 33.7552C15.7817 33.5353 15.7596 32.6155 16.2845 32.0788C16.6106 31.7527 23.0419 25.1931 23.0419 25.1931C23.0419 25.1931 32.4617 34.9272 33.1793 35.6796ZM28.2588 15.7767C27.4299 16.6319 23.0266 21.127 23.0266 21.127C23.0266 21.127 19.115 17.0209 18.704 16.609C18.2929 16.1971 18.3643 15.1568 19.2458 15.0617C20.1273 14.9665 27.0019 14.2031 27.5684 14.1581C28.1348 14.1131 29.0911 14.9156 28.2588 15.7716L28.2588 15.7767Z" fill="#292E3C"/>
<path d="M28.2601 15.765C27.4312 16.6202 23.0279 21.1152 23.0279 21.1152C23.0279 21.1152 19.1163 17.0091 18.7053 16.5973C18.2942 16.1854 18.3656 15.1451 19.2471 15.0499C20.1286 14.9548 27.0032 14.1914 27.5697 14.1463C28.1361 14.1013 29.0924 14.9039 28.2601 15.7599L28.2601 15.765Z" fill="#FCB017"/>
</svg>
